<svg xmlns="http://www.w3.org/2000/svg">
  <symbol id="spinner" viewBox="0 0 64 64">
    <path fill="none" stroke="currentColor" stroke-width="2" stroke-miterlimit="10" d="M32 1C14.879 1 1 14.879 1 32s13.879 31 31 31m0-62c17.121 0 31 13.879 31 31a30.857 30.857 0 01-5.759 18l-5.62 5.621"/>
    <path fill="none" stroke="currentColor" stroke-width="2" stroke-linejoin="bevel" stroke-miterlimit="10" d="M51 45v11h11"/>
  </symbol>

  <symbol id="search" viewBox="0 0 24 24" fill="currentColor">
    <path d="M0 0h24v24H0z" fill="none"/>
    <path d="M15.5 14h-.79l-.28-.27C15.41 12.59 16 11.11 16 9.5 16 5.91 13.09 3 9.5 3S3 5.91 3 9.5 5.91 16 9.5 16c1.61 0 3.09-.59 4.23-1.57l.27.28v.79l5 4.99L20.49 19l-4.99-5zm-6 0C7.01 14 5 11.99 5 9.5S7.01 5 9.5 5 14 7.01 14 9.5 11.99 14 9.5 14z"/>
  </symbol>

  <symbol enable-background="new 0 0 40 40" viewBox="0 0 40 40"
    xmlns="http://www.w3.org/2000/svg">
    <g fill="#231815">
      <path d="m18.5 24c-3 0-5.5-2.5-5.5-5.5s2.5-5.5 5.5-5.5 5.5 2.5 5.5 5.5-2.5 5.5-5.5 5.5zm0-10c-2.5 0-4.5 2-4.5 4.5s2 4.5 4.5 4.5 4.5-2 4.5-4.5-2-4.5-4.5-4.5z"/>
      <path d="m22.5 21.8 4.4 4.4c.2.2.2.5 0 .7-.1.1-.3.1-.4.1s-.3 0-.4-.1l-4.4-4.4z"/>
    </g>
  </symbol>

  <symbol id="atmosphere-sun" viewBox="0 0 64 64">
    <path fill="none" stroke="currentColor" stroke-width="2" stroke-miterlimit="10" d="M56 45c4.19 0 7-2.81 7-7 0-4.189-2.81-9-7-9 0-10.475-9.525-18-20-18-9.271 0-17.348 6.211-19 15h-2c-5.238 0-9 4.762-9 10s3.762 9 9 9" />
    <path fill="none" stroke="currentColor" stroke-width="2" stroke-miterlimit="10" d="M29.999 11.752A12.945 12.945 0 0022 9C14.82 9 9 14.82 9 22c0 2.577.707 3.979 2 6M6 22H0M22 6V0M10 10L4 4M17 45h37M17 51h37M17 57h37" />
  </symbol>

  <symbol id="atmosphere-moon" viewBox="0 0 64 64">
    <path fill="none" stroke="currentColor" stroke-width="2" stroke-miterlimit="10" d="M56 45c4.19 0 7-2.81 7-7 0-4.189-2.81-9-7-9 0-10.475-9.525-18-20-18-9.271 0-17.348 6.211-19 15h-2c-5.238 0-9 4.762-9 10s3.762 9 9 9" />
    <path fill="none" stroke="currentColor" stroke-width="2" stroke-miterlimit="10" d="M24.957 15.001C22.646 11.392 18.604 9 14 9c-.826 0-1.631.085-2.414.233A8.945 8.945 0 0113 14.063a9 9 0 01-9 9 8.97 8.97 0 01-2.98-.516 12.936 12.936 0 002.023 6.452 13.068 13.068 0 003.961 3.96M17 45h37M17 51h37M17 57h37" />
  </symbol>

  <symbol id="clear-sun" viewBox="0 0 64 64">
    <g fill="none" stroke="currentColor" stroke-width="2" stroke-miterlimit="10">
      <circle cx="32" cy="32" r="16" />
      <path d="M32 10V0M32 64V54M54 32h10M0 32h10M48 16l5-5M11 53l5-5M48 48l5 5M11 11l5 5" />
    </g>
  </symbol>

  <symbol id="clear-moon" viewBox="0 0 64 64">
    <path fill="none" stroke="currentColor" stroke-width="2" stroke-miterlimit="10" d="M6 52c14.359 0 26-11.641 26-26 0-9.994-6.729-18.648-15-23 3.396-1.277 8.158-2 12-2 17.121 0 31 13.879 31 31S46.121 63 29 63c-9.505 0-18.313-4.265-24-11 .23.006.768 0 1 0z"/>
  </symbol>

  <symbol id="clouds-sun" viewBox="0 0 64 64">
    <path fill="none" stroke="currentColor" stroke-width="2" stroke-miterlimit="10" d="M56 50c4.19 0 7-2.81 7-7 0-4.189-2.81-9-7-9 0-10.475-9.525-18-20-18-9.271 0-17.348 6.211-19 15h-2c-5.238 0-9 4.762-9 10s3.762 9 9 9h41z" />
    <path fill="none" stroke="currentColor" stroke-width="2" stroke-miterlimit="10" d="M29.999 16.752A12.945 12.945 0 0022 14c-7.18 0-13 5.82-13 13 0 2.577.707 3.979 2 6M6 27H0M22 11V5M10 15L4 9" />
  </symbol>

  <symbol id="clouds-moon" viewBox="0 0 64 64">
    <path fill="none" stroke="currentColor" stroke-width="2" stroke-miterlimit="10" d="M56 50c4.19 0 7-2.81 7-7 0-4.189-2.81-9-7-9 0-10.475-9.525-18-20-18-9.271 0-17.348 6.211-19 15h-2c-5.238 0-9 4.762-9 10s3.762 9 9 9h41z" />
    <path fill="none" stroke="currentColor" stroke-width="2" stroke-miterlimit="10" d="M24.957 20.001C22.646 16.392 18.604 14 14 14c-.826 0-1.631.085-2.414.233A8.945 8.945 0 0113 19.063a9 9 0 01-9 9 8.97 8.97 0 01-2.98-.516 12.936 12.936 0 002.023 6.452 13.068 13.068 0 003.961 3.96" />
  </symbol>

  <symbol id="drizzle-sun" viewBox="0 0 64 64">
    <path fill="none" stroke="currentColor" stroke-width="2" stroke-miterlimit="10" d="M56 45c4.19 0 7-2.81 7-7 0-4.189-2.81-9-7-9 0-10.475-9.525-18-20-18-9.271 0-17.348 6.211-19 15h-2c-5.238 0-9 4.762-9 10s3.762 9 9 9h41z" />
    <path fill="none" stroke="currentColor" stroke-width="2" stroke-miterlimit="10" d="M29.999 11.752A12.945 12.945 0 0022 9C14.82 9 9 14.82 9 22c0 2.577.707 3.979 2 6M6 22H0M22 6V0M10 10L4 4M15 60l-1 2M25 60l-1 2M35 60l-1 2M45 60l-1 2M19 48l-1 2M29 48l-1 2M39 48l-1 2M49 48l-1 2M11 54l-1 2M21 54l-1 2M31 54l-1 2M41 54l-1 2" />
  </symbol>

  <symbol id="drizzle-moon" viewBox="0 0 64 64">
    <path fill="none" stroke="currentColor" stroke-width="2" stroke-miterlimit="10" d="M56 45c4.19 0 7-2.81 7-7 0-4.189-2.81-9-7-9 0-10.475-9.525-18-20-18-9.271 0-17.348 6.211-19 15h-2c-5.238 0-9 4.762-9 10s3.762 9 9 9h41z" />
    <path fill="none" stroke="currentColor" stroke-width="2" stroke-miterlimit="10" d="M24.957 15.001C22.646 11.392 18.604 9 14 9c-.826 0-1.631.085-2.414.233A8.945 8.945 0 0113 14.063a9 9 0 01-9 9 8.97 8.97 0 01-2.98-.516 12.936 12.936 0 002.023 6.452 13.068 13.068 0 003.961 3.96M15 60l-1 2M25 60l-1 2M35 60l-1 2M45 60l-1 2M19 48l-1 2M29 48l-1 2M39 48l-1 2M49 48l-1 2M11 54l-1 2M21 54l-1 2M31 54l-1 2M41 54l-1 2" />
  </symbol>

  <symbol id="rain-sun" viewBox="0 0 64 64">
    <path fill="none" stroke="currentColor" stroke-width="2" stroke-miterlimit="10" d="M56 45c4.19 0 7-2.81 7-7 0-4.189-2.81-9-7-9 0-10.475-9.525-18-20-18-9.271 0-17.348 6.211-19 15h-2c-5.238 0-9 4.762-9 10s3.762 9 9 9h41z" />
    <path fill="none" stroke="currentColor" stroke-width="2" stroke-miterlimit="10" d="M29.999 11.752A12.945 12.945 0 0022 9C14.82 9 9 14.82 9 22c0 2.577.707 3.979 2 6M6 22H0M22 6V0M10 10L4 4M20 48v14M30 48v14M40 48v14M50 48v14" />
  </symbol>

  <symbol id="rain-moon" viewBox="0 0 64 64">
    <path fill="none" stroke="currentColor" stroke-width="2" stroke-miterlimit="10" d="M56 45c4.19 0 7-2.81 7-7 0-4.189-2.81-9-7-9 0-10.475-9.525-18-20-18-9.271 0-17.348 6.211-19 15h-2c-5.238 0-9 4.762-9 10s3.762 9 9 9h41z" />
    <path fill="none" stroke="currentColor" stroke-width="2" stroke-miterlimit="10" d="M24.957 15.001C22.646 11.392 18.604 9 14 9c-.826 0-1.631.085-2.414.233A8.945 8.945 0 0113 14.063a9 9 0 01-9 9 8.97 8.97 0 01-2.98-.516 12.936 12.936 0 002.023 6.452 13.068 13.068 0 003.961 3.96M20 48v14M30 48v14M40 48v14M50 48v14" />
  </symbol>

  <symbol id="snow-sun" viewBox="0 0 64 64">
    <path fill="none" stroke="currentColor" stroke-width="2" stroke-miterlimit="10" d="M56 45c4.19 0 7-2.81 7-7 0-4.189-2.81-9-7-9 0-10.475-9.525-18-20-18-9.271 0-17.348 6.211-19 15h-2c-5.238 0-9 4.762-9 10s3.762 9 9 9h41z" />
    <path fill="none" stroke="currentColor" stroke-width="2" stroke-miterlimit="10" d="M29.999 11.752A12.945 12.945 0 0022 9C14.82 9 9 14.82 9 22c0 2.577.707 3.979 2 6M6 22H0M22 6V0M10 10L4 4M24 48v4M24 56v4M28 50l-2 2M22 56l-2 2M28 58l-2-2M22 52l-2-2M30 54h-4M22 54h-4M44 50v4M44 58v4M48 52l-2 2M42 58l-2 2M48 60l-2-2M42 54l-2-2M50 56h-4M42 56h-4" />
  </symbol>

  <symbol id="snow-moon" viewBox="0 0 64 64">
    <path fill="none" stroke="currentColor" stroke-width="2" stroke-miterlimit="10" d="M56 45c4.19 0 7-2.81 7-7 0-4.189-2.81-9-7-9 0-10.475-9.525-18-20-18-9.271 0-17.348 6.211-19 15h-2c-5.238 0-9 4.762-9 10s3.762 9 9 9h41z" />
    <path fill="none" stroke="currentColor" stroke-width="2" stroke-miterlimit="10" d="M24.957 15.001C22.646 11.392 18.604 9 14 9c-.826 0-1.631.085-2.414.233A8.945 8.945 0 0113 14.063a9 9 0 01-9 9 8.97 8.97 0 01-2.98-.516 12.936 12.936 0 002.023 6.452 13.068 13.068 0 003.961 3.96M24 48v4M24 56v4M28 50l-2 2M22 56l-2 2M28 58l-2-2M22 52l-2-2M30 54h-4M22 54h-4M44 50v4M44 58v4M48 52l-2 2M42 58l-2 2M48 60l-2-2M42 54l-2-2M50 56h-4M42 56h-4" />
  </symbol>

  <symbol id="thunderstorm-sun" viewBox="0 0 64 64">
    <path fill="none" stroke="currentColor" stroke-width="2" stroke-miterlimit="10" d="M56 45c4.19 0 7-2.81 7-7 0-4.189-2.81-9-7-9 0-10.475-9.525-18-20-18-9.271 0-17.348 6.211-19 15h-2c-5.238 0-9 4.762-9 10s3.762 9 9 9h41z" />
    <path fill="none" stroke="currentColor" stroke-width="2" stroke-miterlimit="10" d="M29.999 11.752A12.945 12.945 0 0022 9C14.82 9 9 14.82 9 22c0 2.577.707 3.979 2 6M6 22H0M22 6V0M10 10L4 4M32 48l-3 7h5l-4 7M42 48l-3 7h5l-4 7M22 48l-3 7h5l-4 7" />
  </symbol>

  <symbol id="thunderstorm-moon" viewBox="0 0 64 64">
    <path fill="none" stroke="currentColor" stroke-width="2" stroke-miterlimit="10" d="M56 45c4.19 0 7-2.81 7-7 0-4.189-2.81-9-7-9 0-10.475-9.525-18-20-18-9.271 0-17.348 6.211-19 15h-2c-5.238 0-9 4.762-9 10s3.762 9 9 9h41z" />
    <path fill="none" stroke="currentColor" stroke-width="2" stroke-miterlimit="10" d="M24.957 15.001C22.646 11.392 18.604 9 14 9c-.826 0-1.631.085-2.414.233A8.945 8.945 0 0113 14.063a9 9 0 01-9 9 8.97 8.97 0 01-2.98-.516 12.936 12.936 0 002.023 6.452 13.068 13.068 0 003.961 3.96M32 48l-3 7h5l-4 7M42 48l-3 7h5l-4 7M22 48l-3 7h5l-4 7" />
  </symbol>
</svg>